<svg version="1" xmlns="http://www.w3.org/2000/svg" width="682.667" height="682.667" viewBox="0 0 512.000000 512.000000"><path d="M240.8 96.5c-.1.1-2.8.6-5.8.9-8.7 1-10.8 1.5-23.6 5-25.6 7.2-49.7 21.7-69.4 41.6-12 12.2-21.3 25.2-28.9 40.4l-6 12 6.7 4.5c34.8 23.4 86.2 50.7 138.6 73.8 45.6 20.1 99.4 39.1 137.6 48.8 3.6.9 7.2 1.8 8.1 2.1 1.2.3 2.3-.9 3.9-4.2 4.2-9.1 9.4-25 10.6-32.9.3-2.2.8-4.3 1-4.6 2.4-4 2.5-41.8.1-54.4-3-15.5-4.2-20-9.1-32.5-18.4-46.6-58.7-82.6-107.1-95.5-7.9-2.1-6.6-1.9-20.5-4.2-3-.5-35.7-1.3-36.2-.8z"/><path d="M24.5 128.5C8.8 131.3-.8 140.8.3 152.5c1.4 14.4 15.4 32.7 43.3 56.5 1.6 1.3 8.5 6.6 15.4 11.8 6.9 5.2 13.3 10 14.3 10.8.9.8 2 1.4 2.4 1.4.4 0 1.6.8 2.7 1.8 4.4 3.9 60.1 38.2 62.1 38.2.2 0 2.8 1.4 5.7 3.1 17.6 10.5 68.5 34.9 101.8 48.8 10.7 4.5 20.4 8.6 21.5 9.1 28.8 12.2 100.1 35 126.5 40.4 37.2 7.6 48.4 9 70.5 9.1 23.9 0 34.8-3 41.7-11.6 3.7-4.5 4.6-11.5 2.4-17.7-4.5-12.6-19.5-27.9-45.6-46.3-10.1-7.2-23.4-16-31.3-20.8-4.1-2.5-4.1-2.5-5.2 4.4-.3 2.2-1.5 7.1-2.6 10.8-1.2 3.8-1.9 6.9-1.8 7.1.2.1 4.2 3.1 8.9 6.6 15.6 11.7 39 33 39 35.5 0 .4-5.3.4-11.7.1-13.5-.6-29.3-2.7-46.3-6.1-1.4-.3-3.6-.7-5-1-1.4-.2-10.6-2.5-20.5-5-120-30.4-274.1-106.6-336.8-166.6-6.4-6.1-11.7-11.5-11.7-12.1 0-.9 21.9-.4 27.6.6 1 .2 4.2.7 6.9 1 8.1 1.2 10.5 1.6 20.2 3.5l9.1 1.7 2.3-4c3.1-5.6 6.5-10.5 9.5-13.9 1.4-1.6 2.3-3.1 2.1-3.4-1-.9-20.7-7.3-30.7-9.8-10.5-2.8-10.1-2.7-20.5-4.9-18.6-4-31.8-5-42-3.1zM96.6 269.7c4.3 44.9 26.1 85.1 60.4 112 18.7 14.7 45.7 27.3 65.5 30.8 1.7.2 4.1.7 5.5 1 11.6 2.6 52.9 2.6 57 0 .4-.2 2.2-.7 4.1-1 5-.8 20.4-5.4 25.8-7.7 14.4-6 38.8-20.4 39.8-23.4.2-.6-2.4-1.9-5.9-2.9-8.7-2.4-42-13.5-55.3-18.3-62.9-23-132.8-55.9-185.4-87.4-6.3-3.7-11.5-6.8-11.6-6.8-.1 0-.1 1.7.1 3.7z"/></svg>